<svg width="100" viewBox="0 0 113 146" fill="none" xmlns="http://www.w3.org/2000/svg">
<path d="M110.667 47.9166L64.5833 1.83333C63.4124 0.660896 61.8237 0.00145877 60.1667 0H22.9167C16.8388 0 11.0098 2.41443 6.71213 6.71213C2.41443 11.0098 0 16.8388 0 22.9167V122.917C0 128.994 2.41443 134.823 6.71213 139.121C11.0098 143.419 16.8388 145.833 22.9167 145.833H89.5833C95.6612 145.833 101.49 143.419 105.788 139.121C110.086 134.823 112.5 128.994 112.5 122.917V52.0833C112.434 50.5133 111.78 49.0257 110.667 47.9166ZM66.6667 16.6822L95.8178 45.8333H66.6667V16.6822ZM89.5833 137.984H22.9167C20.154 137.984 14.0175 133.01 12.064 131.056C10.1104 129.103 7.84884 125.679 7.84884 122.917V22.9167C7.84884 20.154 10.1104 14.405 12.064 12.4515C14.0175 10.4979 20.154 7.84883 22.9167 7.84883H58.8178V47.4322C58.8394 49.083 59.7337 50.8189 60.9012 51.9863C62.0686 53.1538 63.4169 53.6606 65.0678 53.6822H104.651V122.917C104.651 125.679 102.39 131.428 100.436 133.382C98.4825 135.335 92.346 137.984 89.5833 137.984Z" fill="white"/>
</svg>
